<svg version="1.0" xmlns="http://www.w3.org/2000/svg"
 height="30" fill="currentColor" viewBox="0 0 160 160"><g transform="translate(0,160) scale(0.1,-0.1)"><path d="M603 1540 l-43 -22 0 -64 c0 -34 -6 -75 -12 -90 -10 -21 -10 -28 -1
-31 7 -3 15 -21 19 -41 8 -44 18 -52 67 -52 45 0 47 -13 8 -46 -16 -14 -35
-41 -42 -61 -6 -20 -39 -73 -73 -119 -58 -79 -64 -84 -138 -113 -42 -17 -89
-31 -103 -31 -33 0 -82 -25 -94 -49 -15 -27 -4 -32 51 -25 44 6 48 5 48 -15 0
-28 10 -27 36 6 19 24 31 28 97 33 77 7 94 14 180 80 l27 22 35 -74 c19 -40
40 -94 47 -121 l12 -47 -57 -58 c-32 -32 -54 -61 -50 -65 3 -4 -8 -22 -25 -40
-21 -22 -42 -62 -60 -117 -44 -130 -66 -167 -114 -191 -32 -16 -52 -20 -85
-15 -50 7 -93 -7 -93 -29 0 -20 51 -51 114 -70 27 -8 57 -22 66 -30 10 -9 33
-18 52 -21 32 -6 37 -3 56 31 12 20 22 42 22 50 0 19 41 103 73 150 15 22 34
60 42 86 19 58 46 85 71 71 13 -7 32 0 83 33 l66 44 68 -67 c64 -63 69 -66 82
-48 10 13 20 16 32 11 10 -5 80 -11 156 -15 l138 -7 33 -32 c24 -23 38 -51 50
-95 20 -73 48 -99 67 -63 7 12 16 58 21 102 4 44 11 98 13 120 3 22 2 46 -3
53 -6 9 -44 15 -120 18 -66 3 -125 11 -147 20 -20 8 -65 18 -101 21 -64 6 -64
6 -96 56 -18 27 -35 71 -39 96 -12 76 -18 100 -53 190 -36 92 -66 186 -66 208
0 18 51 17 121 -3 l57 -16 11 -56 c15 -75 14 -103 -5 -116 -26 -20 -5 -78 31
-88 39 -10 51 -5 70 33 13 25 15 37 6 56 -6 13 -11 57 -11 98 0 41 -5 97 -11
124 -10 48 -12 51 -62 69 -29 11 -63 23 -77 27 -14 4 -56 21 -94 37 -58 25
-79 29 -128 26 l-59 -4 6 25 c3 14 17 43 31 63 37 57 34 118 -10 165 -30 33
-39 37 -92 40 -46 3 -68 -1 -101 -17z"/><path d="M129 717 c-68 -45 -90 -143 -47 -207 52 -76 123 -97 197 -58 86 44
113 125 69 207 -42 79 -146 107 -219 58z"/></g></svg>
