<svg version="1.0" xmlns="http://www.w3.org/2000/svg"
 height="30" fill="currentColor" viewBox="0 0 160 160"><g transform="translate(0,160) scale(0.1,-0.1)"><path d="M1003 1530 c-37 -12 -83 -62 -84 -93 0 -12 -2 -46 -4 -76 -3 -48 0
-58 31 -103 44 -61 39 -78 -19 -78 -48 0 -91 -13 -180 -54 -53 -24 -58 -24
-99 -11 -24 8 -62 19 -85 25 -36 9 -46 18 -73 65 -37 64 -49 72 -112 70 -84
-1 -135 -74 -104 -148 24 -59 89 -82 146 -52 39 20 80 13 137 -23 84 -54 118
-64 176 -53 29 5 67 12 85 15 l32 5 0 -53 c0 -29 -5 -78 -11 -110 -11 -54 -14
-58 -60 -81 -26 -14 -56 -35 -66 -49 -26 -32 -129 -94 -171 -102 -18 -3 -35
-10 -38 -15 -3 -5 -13 -9 -23 -9 -10 0 -58 -14 -107 -30 -49 -17 -100 -33
-114 -35 -85 -14 -147 -37 -172 -65 -33 -36 -35 -63 -7 -91 17 -17 29 -20 63
-15 22 4 52 15 66 24 57 41 128 57 310 71 108 8 122 13 245 86 22 13 61 26 86
30 47 7 47 7 54 -25 4 -18 16 -51 26 -74 39 -85 18 -118 -81 -129 -30 -3 -77
-13 -105 -23 -27 -9 -65 -16 -82 -15 -68 4 -120 -49 -94 -97 5 -10 13 -50 17
-87 8 -73 37 -124 66 -112 15 5 60 121 63 162 2 27 54 35 210 32 130 -1 172
11 193 58 6 13 8 90 5 191 -6 215 1 290 28 297 17 5 19 11 13 48 l-7 42 21
-21 c16 -16 34 -22 65 -22 39 0 49 6 120 73 57 53 77 79 77 97 0 18 -22 47
-77 101 -114 111 -134 123 -205 121 l-59 -2 29 25 c69 58 81 259 18 300 -29
19 -103 27 -143 15z m265 -548 c40 -14 42 -16 29 -36 -10 -14 -27 -22 -53 -24
-22 -2 -47 -11 -58 -20 -18 -16 -18 -15 -11 28 11 73 15 82 33 74 10 -4 36
-14 60 -22z"/></g></svg>
