<svg xmlns="http://www.w3.org/2000/svg" viewBox="0 -1900 2600 2400" fill="currentColor" height="30"><g transform="scale(1, -1)"><path d="M1650 557Q1730 557 1810.0 578.5Q1890 600 1964 640Q2041 681 2109.5 745.5Q2178 810 2228 881Q2288 966 2324.0 1073.5Q2360 1181 2360 1286Q2360 1390 2327.0 1474.5Q2294 1559 2235 1620Q2174 1682 2088.0 1716.0Q2002 1750 1898 1750Q1756 1750 1625.0 1690.5Q1494 1631 1391.0 1528.0Q1288 1425 1228.5 1294.5Q1169 1164 1169 1022Q1169 940 1205.5 850.0Q1242 760 1299 702Q1373 627 1463.5 592.0Q1554 557 1650 557ZM422 -339Q433 -350 450 -350Q472 -350 491.5 -331.5Q511 -313 511 -288Q511 -274 502 -259L835 76Q843 73 850 73Q870 73 883.0 88.5Q896 104 896 128Q896 166 871.5 202.0Q847 238 811.5 261.5Q776 285 742 285Q716 285 700.5 270.5Q685 256 685 235Q685 227 688 221L356 -115Q343 -105 326 -105Q303 -105 284.0 -124.5Q265 -144 265 -166Q265 -182 277 -194ZM783 111 1300 630 1229 700 712 181ZM1260 519 1407 665 1265 804 1120 663ZM1736 574 1793 630 1258 1188 1201 1132ZM1979 705 2036 762 1389 1411 1333 1354ZM1573 608 2317 1348 2260 1404 1516 664ZM1651 677Q1579 677 1511.0 703.0Q1443 729 1384 787Q1347 825 1318.0 893.5Q1289 962 1289 1023Q1289 1140 1339.5 1248.5Q1390 1357 1476.0 1443.5Q1562 1530 1671.5 1580.0Q1781 1630 1898 1630Q1978 1630 2042.5 1604.5Q2107 1579 2152 1532Q2194 1488 2217.0 1425.5Q2240 1363 2240 1286Q2240 1200 2209.5 1110.0Q2179 1020 2129 949Q2088 890 2030.0 835.0Q1972 780 1908 746Q1847 714 1781.5 695.5Q1716 677 1651 677ZM1278 929 2008 1648 1951 1705 1222 985ZM1380 722 2215 1535 2158 1592 1323 778ZM2142 911 2198 967 1565 1593 1508 1537ZM2270 1135 2327 1191 1796 1714 1740 1657ZM240 1407Q240 1476 287.5 1525.5Q335 1575 408 1576L935 1588Q1004 1590 1050.0 1544.0Q1096 1498 1096 1436Q1096 1400 1080.0 1370.0Q1064 1340 1039 1317L705 1006Q667 971 634.5 955.0Q602 939 564 939Q514 939 472.0 971.0Q430 1003 413 1052Q355 1063 315.5 1110.0Q276 1157 276 1219Q276 1253 290 1286Q240 1338 240 1407ZM320 1407Q320 1368 352 1336L792 1458Q795 1481 808 1506L410 1496Q372 1495 346.0 1469.0Q320 1443 320 1407ZM356 1219Q356 1190 373.5 1166.5Q391 1143 424 1132L804 1372L798 1387L368 1264Q356 1243 356 1219ZM474 1078Q486 1047 511.5 1033.0Q537 1019 564 1019Q585 1019 604.0 1028.5Q623 1038 651 1064L894 1291Q881 1296 869.5 1302.5Q858 1309 848 1317ZM870 1436Q870 1406 891.5 1384.5Q913 1363 943 1363Q973 1363 994.5 1384.5Q1016 1406 1016 1436Q1016 1465 994.0 1486.5Q972 1508 943 1508Q914 1508 892.0 1486.5Q870 1465 870 1436Z"/></g></svg>
