<svg xmlns="http://www.w3.org/2000/svg" viewBox="0 -1900 2600 2400" fill="currentColor" height="28"><g transform="scale(1, -1)"><path d="M1181 -350Q1107 -350 1051.5 -305.0Q996 -260 996 -196Q996 -153 1021.0 -118.0Q1046 -83 1086 -63Q1086 73 1097.0 167.0Q1108 261 1134.0 329.5Q1160 398 1204 456L1119 807Q1045 733 956.5 676.0Q868 619 781.0 586.5Q694 554 624 554Q551 554 508.0 588.0Q465 622 465 677Q465 727 501.5 758.0Q538 789 588 799L753 832Q785 838 821.5 869.0Q858 900 898.5 943.5Q939 987 984.5 1031.5Q1030 1076 1080.0 1111.0Q1130 1146 1184 1159Q1113 1200 1069.0 1273.0Q1025 1346 1025 1434Q1025 1521 1067.5 1592.5Q1110 1664 1181.5 1707.0Q1253 1750 1340 1750Q1428 1750 1499.0 1707.0Q1570 1664 1612.5 1592.5Q1655 1521 1655 1434Q1655 1372 1633.0 1316.5Q1611 1261 1572 1219Q1709 1216 1839.5 1181.0Q1970 1146 2075.5 1089.5Q2181 1033 2243.0 964.0Q2305 895 2305 823Q2305 773 2270.0 736.5Q2235 700 2183 700Q2139 700 2109.0 724.5Q2079 749 2051.5 785.5Q2024 822 1987.0 858.5Q1950 895 1892.5 919.5Q1835 944 1744 944L1836 611Q1850 562 1854.5 515.0Q1859 468 1859 425Q1859 377 1856.0 337.0Q1853 297 1853 269Q1853 221 1877.0 193.0Q1901 165 1935 165Q1965 165 1985.0 183.5Q2005 202 2028.0 220.0Q2051 238 2090 238Q2160 238 2203.5 177.5Q2247 117 2247 38Q2247 -26 2217.5 -61.0Q2188 -96 2143 -96Q2111 -96 2081.5 -79.0Q2052 -62 2035 -35Q2007 -59 1957.5 -75.0Q1908 -91 1848 -91Q1731 -91 1638.5 -19.0Q1546 53 1459 211Q1428 160 1408.5 121.0Q1389 82 1379.5 42.0Q1370 2 1366.5 -51.0Q1363 -104 1363 -185Q1363 -251 1310.5 -300.5Q1258 -350 1181 -350ZM413 -1Q445 46 452 92H377Q385 39 413 -1ZM562 -93V92H513Q504 22 454 -46Q499 -84 562 -93ZM377 152H452Q445 199 413 245Q385 205 377 152ZM622 -93Q685 -84 730 -46Q680 22 671 92H622ZM592 -175Q510 -175 442.5 -135.0Q375 -95 335.0 -27.5Q295 40 295 122Q295 204 335.0 271.5Q375 339 442.5 379.0Q510 419 592 419Q674 419 741.5 379.0Q809 339 849.0 271.5Q889 204 889 122Q889 40 849.0 -27.5Q809 -95 741.5 -135.0Q674 -175 592 -175ZM513 152H562V337Q499 328 454 290Q504 222 513 152ZM771 -1Q799 39 807 92H732Q740 46 771 -1ZM622 152H671Q680 222 730 290Q685 328 622 337ZM732 152H807Q799 205 771 245Q740 199 732 152Z"/></g></svg>
