<svg version="1.0" xmlns="http://www.w3.org/2000/svg" height="30" fill="currentColor" viewBox="0 0 160 160"><g transform="translate(0,160) scale(0.1,-0.1)"><path d="M573 1530 c-50 -22 -62 -53 -44 -117 8 -30 8 -50 1 -63 -13 -24 -13
-30 3 -30 6 0 18 -14 26 -31 12 -28 17 -30 55 -27 35 3 41 0 44 -17 2 -12 -12
-36 -34 -60 -20 -22 -67 -87 -105 -145 -74 -112 -99 -132 -222 -175 -49 -17
-77 -49 -59 -67 6 -6 17 -6 30 1 29 15 52 14 52 -4 0 -23 19 -18 32 10 11 24
20 27 103 41 30 5 54 20 97 62 55 54 58 55 84 42 37 -21 54 -60 65 -157 5 -48
12 -89 14 -91 2 -3 -18 -32 -46 -65 -78 -94 -96 -131 -114 -242 -10 -55 -23
-113 -31 -129 -8 -16 -14 -35 -14 -41 0 -23 -64 -62 -115 -70 -122 -18 -107
-65 26 -86 35 -6 68 -14 73 -20 6 -5 27 -9 48 -9 33 0 40 4 49 27 10 26 24 94
35 166 2 15 10 40 18 55 8 15 20 57 26 92 18 96 16 92 51 85 25 -6 40 0 85 29
29 20 56 36 59 36 3 0 42 -31 86 -68 89 -76 111 -84 269 -103 86 -9 114 -16
160 -39 26 -12 60 -72 60 -104 0 -39 21 -80 42 -84 18 -3 33 32 48 114 5 27
14 68 21 92 18 58 4 69 -101 83 -47 5 -116 21 -155 34 -38 13 -92 27 -118 30
-27 4 -46 9 -43 12 3 3 -8 21 -24 40 -39 44 -82 130 -109 219 -12 39 -36 93
-53 120 -53 84 -78 146 -78 197 l0 48 28 -15 c15 -7 58 -19 96 -24 38 -6 73
-15 78 -20 5 -5 14 -41 20 -81 10 -61 9 -73 -5 -89 -17 -19 -13 -61 7 -74 23
-16 56 -7 72 17 14 21 15 32 6 63 -6 20 -13 76 -16 124 -3 48 -10 96 -15 107
-7 11 -45 32 -93 51 -46 17 -108 42 -139 55 -36 16 -75 25 -108 25 -28 0 -51
5 -51 10 0 6 7 10 17 10 14 0 14 2 -2 20 -17 19 -17 21 5 71 14 35 20 63 16
83 l-6 31 21 -25 c57 -70 68 -80 93 -80 14 0 40 13 58 30 27 24 29 29 15 30
-10 0 -43 25 -72 55 -56 59 -90 69 -129 40 -16 -12 -21 -12 -40 0 -29 21 -103
18 -153 -5z"/><path d="M129 717 c-68 -45 -90 -143 -47 -207 52 -76 123 -97 197 -58 86 44
113 125 69 207 -42 79 -146 107 -219 58z"/></g></svg>
