<svg version="1.0" xmlns="http://www.w3.org/2000/svg"
 height="30" fill="currentColor" viewBox="0 0 160 160"><g transform="translate(0,160) scale(0.1,-0.1)"><path d="M974 1540 c-11 -4 -33 -23 -48 -42 -15 -18 -43 -50 -61 -70 -19 -20
-35 -44 -35 -52 0 -27 -38 -56 -72 -56 l-33 -1 25 -14 25 -14 -33 -1 c-20 0
-31 -4 -27 -10 12 -19 117 -12 153 10 l34 21 21 -28 c12 -15 32 -38 44 -51 33
-33 20 -52 -38 -52 -50 0 -137 -28 -196 -62 -30 -18 -39 -19 -86 -8 -107 24
-116 29 -157 90 -33 49 -48 61 -81 70 -48 13 -75 6 -111 -28 -35 -32 -43 -71
-24 -115 24 -59 89 -82 146 -52 41 21 74 14 168 -35 l84 -44 66 12 c37 6 77
15 90 18 18 5 21 3 16 -11 -4 -9 -1 -40 6 -70 10 -44 10 -60 -2 -96 -12 -36
-23 -49 -64 -71 -27 -15 -59 -39 -72 -54 -47 -54 -120 -95 -197 -109 -41 -8
-107 -28 -147 -43 -40 -16 -104 -37 -143 -46 -81 -20 -111 -37 -127 -71 -9
-19 -7 -29 6 -50 21 -31 67 -33 114 -5 67 41 138 57 304 70 90 6 114 12 155
36 93 54 138 73 177 76 38 3 40 2 52 -37 7 -22 22 -58 33 -80 12 -21 21 -49
21 -61 0 -28 -40 -54 -82 -54 -18 0 -65 -9 -103 -21 -39 -11 -87 -20 -108 -20
-49 1 -93 -38 -82 -72 4 -12 10 -47 14 -78 7 -62 34 -112 58 -107 17 3 67 133
58 148 -9 15 72 22 215 18 l141 -3 29 32 29 32 -5 173 c-7 216 0 294 27 301
16 4 18 12 14 54 -3 26 -2 41 1 33 11 -26 37 -40 76 -40 34 0 47 8 113 72 42
39 78 82 82 96 5 20 -7 36 -73 103 -118 119 -142 133 -209 125 -30 -3 -55 -3
-55 0 0 4 13 21 29 40 36 40 51 90 51 166 0 74 -12 103 -52 128 -35 21 -114
26 -154 10z m276 -551 c19 -6 41 -14 49 -16 11 -3 11 -7 -2 -26 -10 -16 -26
-23 -55 -25 -31 -2 -47 -10 -63 -30 -14 -17 -20 -20 -16 -9 4 10 10 43 13 74
7 59 3 57 74 32z"/></g></svg>
