<svg xmlns="http://www.w3.org/2000/svg" viewBox="0 -1900 2600 2400" fill="currentColor" height="28"><g transform="scale(1, -1)"><path d="M1961 -166Q1929 -166 1899.5 -149.0Q1870 -132 1853 -105Q1825 -129 1775.5 -145.0Q1726 -161 1666 -161Q1566 -161 1454.0 -58.5Q1342 44 1264 271H1135Q1117 334 1096.0 419.5Q1075 505 1059.0 602.0Q1043 699 1038 794Q929 739 870.5 682.5Q812 626 779.5 578.0Q747 530 717.5 501.0Q688 472 636 472Q584 472 557.0 503.0Q530 534 530 588Q530 705 658.5 815.0Q787 925 1028 1034Q952 1073 904.5 1148.0Q857 1223 857 1314Q857 1401 899.5 1472.5Q942 1544 1013.5 1586.5Q1085 1629 1172 1629Q1259 1629 1330.5 1586.5Q1402 1544 1444.5 1472.5Q1487 1401 1487 1314Q1487 1267 1471.0 1216.0Q1455 1165 1416 1100Q1448 1124 1481.5 1137.0Q1515 1150 1549 1160Q1642 1186 1692.5 1221.0Q1743 1256 1779 1323Q1821 1401 1859.5 1433.5Q1898 1466 1947 1466Q1997 1466 2033.5 1434.5Q2070 1403 2070 1334Q2070 1268 2033.0 1214.5Q1996 1161 1937.5 1117.5Q1879 1074 1814.0 1036.5Q1749 999 1690.5 965.5Q1632 932 1595.0 899.0Q1558 866 1558 829Q1558 803 1576.0 768.0Q1594 733 1617.5 680.5Q1641 628 1659.0 549.0Q1677 470 1677 355Q1677 238 1690.0 166.5Q1703 95 1753 95Q1783 95 1803.0 113.5Q1823 132 1846.0 150.0Q1869 168 1908 168Q1978 168 2021.5 107.5Q2065 47 2065 -32Q2065 -96 2035.5 -131.0Q2006 -166 1961 -166ZM904 -350Q827 -350 787.5 -327.0Q748 -304 748 -252Q748 -212 769.5 -176.5Q791 -141 838 -103Q854 -90 859.5 -68.5Q865 -47 865 -20V183Q865 295 943.0 369.0Q1021 443 1217 499L1414 129Q1318 159 1284.5 167.5Q1251 176 1232 176Q1100 176 1100 21Q1100 -42 1106.5 -93.5Q1113 -145 1113 -202Q1113 -272 1061.5 -311.0Q1010 -350 904 -350ZM1811 1230Q1740 1230 1680.5 1265.0Q1621 1300 1586.0 1359.5Q1551 1419 1551 1490Q1551 1562 1586.0 1621.0Q1621 1680 1680.5 1715.0Q1740 1750 1811 1750Q1883 1750 1941.5 1715.0Q2000 1680 2035.0 1621.0Q2070 1562 2070 1490Q2070 1419 2035.0 1359.5Q2000 1300 1941.5 1265.0Q1883 1230 1811 1230ZM1811 1330Q1877 1330 1923.5 1377.0Q1970 1424 1970 1490Q1970 1556 1923.5 1603.0Q1877 1650 1811 1650Q1745 1650 1698.0 1603.0Q1651 1556 1651 1490Q1651 1424 1698.0 1377.0Q1745 1330 1811 1330Z"/></g></svg>
