<svg xmlns="http://www.w3.org/2000/svg" viewBox="0 -1900 2600 2400" fill="currentColor" height="30"><g transform="scale(1, -1)"><path d="M1301 -350Q1083 -350 892.5 -268.5Q702 -187 557.5 -42.5Q413 102 331.5 292.5Q250 483 250 700Q250 918 331.5 1108.0Q413 1298 557.5 1442.5Q702 1587 892.5 1668.5Q1083 1750 1301 1750Q1518 1750 1708.0 1668.5Q1898 1587 2042.5 1442.5Q2187 1298 2268.5 1108.0Q2350 918 2350 700Q2350 483 2268.5 292.5Q2187 102 2042.5 -42.5Q1898 -187 1708.0 -268.5Q1518 -350 1301 -350ZM656 -30Q580 30 509.0 134.0Q438 238 401 347Q410 389 423.5 434.5Q437 480 452.0 522.0Q467 564 482.0 598.0Q497 632 509 651Q559 626 630.5 597.0Q702 568 773.0 542.0Q844 516 892 500Q895 463 907.0 400.5Q919 338 935.5 269.5Q952 201 968.5 144.5Q985 88 997 62ZM1422 -115Q1283 -97 1147.5 -51.5Q1012 -6 887 58L939 154Q1055 94 1181.0 52.0Q1307 10 1437 -7ZM468 551Q458 628 452.5 702.5Q447 777 447 850Q447 912 451.0 975.0Q455 1038 462 1104L575 1089Q568 1029 564.5 971.0Q561 913 561 856Q561 785 566.0 713.5Q571 642 580 566ZM885 420 806 504 1177 835 1255 751ZM1478 -247 1339 -38 1683 274 1996 215 1982 11Q1924 -64 1844.5 -117.0Q1765 -170 1671.5 -202.0Q1578 -234 1478 -247ZM510 978Q499 982 480.0 994.5Q461 1007 442.0 1023.0Q423 1039 409 1053Q424 1098 466.5 1176.5Q509 1255 598 1357Q681 1452 769.5 1506.0Q858 1560 919 1581L868 1291Q774 1233 677.5 1149.0Q581 1065 510 978ZM1301 -230Q1493 -230 1661.5 -158.0Q1830 -86 1958.0 42.0Q2086 170 2158.0 338.5Q2230 507 2230 700Q2230 894 2157.5 1062.5Q2085 1231 1957.0 1358.5Q1829 1486 1661.0 1558.0Q1493 1630 1301 1630Q1109 1630 940.0 1558.0Q771 1486 643.0 1358.5Q515 1231 442.5 1062.5Q370 894 370 700Q370 507 442.0 338.5Q514 170 642.0 42.0Q770 -86 939.0 -158.0Q1108 -230 1301 -230ZM1645 184Q1639 249 1626.0 320.5Q1613 392 1595.0 462.5Q1577 533 1554 594L1657 634Q1693 536 1719.5 416.5Q1746 297 1755 193ZM1251 1063Q1167 1109 1094.0 1144.0Q1021 1179 944.5 1207.5Q868 1236 775 1261L805 1372Q902 1346 982.0 1315.5Q1062 1285 1139.5 1248.5Q1217 1212 1305 1164ZM1969 108 1909 190Q1961 229 2010.5 283.0Q2060 337 2102.0 397.0Q2144 457 2173 514L2265 471Q2213 374 2135.0 275.0Q2057 176 1969 108ZM1625 568Q1577 575 1506.5 594.0Q1436 613 1362.5 638.0Q1289 663 1230.5 687.5Q1172 712 1148 730Q1134 787 1127.5 864.0Q1121 941 1121 1014Q1121 1071 1124.5 1120.0Q1128 1169 1135 1200Q1165 1221 1224.0 1245.5Q1283 1270 1351.5 1292.0Q1420 1314 1481.0 1329.0Q1542 1344 1575 1345L1883 964Q1859 904 1814.0 827.5Q1769 751 1718.5 681.0Q1668 611 1625 568ZM2152 825Q2097 848 2027.5 867.5Q1958 887 1888.5 903.5Q1819 920 1760 933L1785 1046Q1847 1033 1920.0 1014.5Q1993 996 2065.5 975.0Q2138 954 2196 930ZM2153 397Q2153 477 2148.5 572.5Q2144 668 2131.0 758.0Q2118 848 2092 909Q2102 929 2114.5 969.0Q2127 1009 2138.5 1056.5Q2150 1104 2157 1144Q2213 1028 2237.5 917.0Q2262 806 2262 670Q2262 592 2254.5 540.0Q2247 488 2237.5 457.0Q2228 426 2220 410Q2203 402 2188.0 399.5Q2173 397 2153 397ZM1604 1241 1493 1271 1580 1581 1691 1551ZM1861 1487 1615 1489Q1597 1504 1548.5 1536.0Q1500 1568 1446.0 1602.0Q1392 1636 1355 1656Q1419 1652 1488.5 1640.5Q1558 1629 1640 1600Q1709 1575 1768.5 1543.0Q1828 1511 1861 1487Z"/></g></svg>
